<svg xmlns="http://www.w3.org/2000/svg" viewBox="0 0 537.34 881.08"><defs><style>.cls-1{fill:#5b5a5a;}.cls-2{fill:#b2b1b1;}</style></defs><title>Mapa Lima</title><g id="Pucusana"><path class="cls-1" d="M785.85,949.29c2.71,4.16-.58,7.37-1.88,10.8s-2,6.35,0,9.63a27.48,27.48,0,0,1,4.06,15.53c-.15,3.27-.92,7-3.77,9.67-6.35,6-12.56,12.12-18.84,18.17-.53.51-1,1.2-1.86,1.18-4.18-.09-6.53,2.68-8.9,5.53-1,1.21-3.93,1.12-2.9,3.63.65,1.57,2.08,2.81,3.17,4.19,2,2.57,2.68,4.22,2.54,6.52-.88-.05-.94-.74-1-1.37-.13-1-9.08-7-13.6-7.63-1-.14-.92-.54-.64-1.34.52-1.48.49-3.06,1.48-4.48,1.17-1.68.44-3.21-1.23-4.29-1.15-.74-2.65-1-3.53-2.9,1.73.7,3.56,1.56,4.36-.26.91-2,3.14-3.9,1.26-6.66a16.06,16.06,0,0,1-2.52-5.58c-.25-1.16-.37-1.86,1.27-1.38,2.64.78,5-1,7.52-1.24,1.19-.13,1.6-1.83.79-3.06s.28-8,1.28-9.23a5.23,5.23,0,0,0,.94-4c-.2-2.2,0-4,3-4.28,2.56-.23,3-1.74,2-4.31-.72-2-2.71-3.52-2.33-5.91.24-1.48.29-3.49,2.61-1.52.21.18.52.41.74.37,2.86-.56,4.85-2.77,7.34-4.06,1.38-.72.59-2.69-.11-4.1s-1.19-2.73-1.77-4.1c3.93-2.33,5.27-4.59,6.69-7.83.69-1.59,4.28-2.31,5.5-.92C781.26,949.57,783.47,946.9,785.85,949.29Z" transform="translate(-372.48 -153.06)"/></g><g id="Santa_Maria_del_Mar" data-name="Santa Maria del Mar"><path class="cls-1" d="M783.9,922.43c2,4.19-.43,6.14-1.27,9.14a2.7,2.7,0,0,0,.69,2.08c2.58,3.93,3.1,8.31,2.8,12.87-2.72,0-4.77-1.47-6.5-3.3-3.12-3.3-8.12-2.63-9.89,1.54a11.15,11.15,0,0,1-4.68,5.72c-.87-2.66-2-5.23-1.71-8.16.13-1.37-1-2.41-1.55-3.56-1.47-2.84-1.19-3.91,1.42-5.56,4.77-3,4.8-7.16.09-10.44-.45-.32-1.16-.75-1.19-1.1-.13-1.47,2.68-.89,2.62-.55,3.57.85,6.43.92,9.18-1.84s3.8-3.15,6.43-.91A21.11,21.11,0,0,1,783.9,922.43Z" transform="translate(-372.48 -153.06)"/></g><g id="San_Bartolo" data-name="San Bartolo"><path class="cls-1" d="M758.31,910.1c1.83-4.59,3.16-5.36,5.51-7.35a95,95,0,0,1,8.26-6.42,39.57,39.57,0,0,0,7.34-6.43c4.17-5,7.9-8.07,14.69-9.18a8.37,8.37,0,0,0,5.5-3.67c1.36-2.25,2-2.24,4.59-2.75,1.1-.22,3.64-.34,4.59-.92a8.69,8.69,0,0,1,8.26-.92c2.84,1.06,6.57-.93,9.18-1.83a18.51,18.51,0,0,1,8.26-.92c6.62.73,11-.35,16.53-3.67,1.53-.93,3.67-2.76,5.28-3.48,2.06-.19,2.32,1.73.49,3a7.47,7.47,0,0,0-3.68,7.59,28.31,28.31,0,0,1,0,4.51c-.09,1.74.34,3,2.37,3,.61,0,1.28.13,1.4.72.81,3.89,4.52,4.11,7.16,5.48,1.81.94,1.93,1.64.58,2.69a8.74,8.74,0,0,0-3.73,7.27c-.13,3.89-6,7-9.9,6.79-2.64-.15-5.63-.91-8.17.88-.23.16-.52.41-.74.37-4.12-.69-6.46,2.77-9.64,4-5.52,2.08-9.34,6.94-15.28,8.16-4.15.85-8.12,2.53-12.46,2.54a8.33,8.33,0,0,0-4.84,1,4.42,4.42,0,0,1-4.55,0c-2.82-1.69-5.77-.34-8.53.58-1.24,0-2.19-1.94-2.75-2.75-1.17-1.71-4.29-4.46-5.51-4.59-.88-.58-2.9.16-3.67.92-3,2.89-4.26,4.63-8.26,4.58a10.86,10.86,0,0,1-5.51-1.83A6.24,6.24,0,0,1,758.31,910.1Z" transform="translate(-372.48 -153.06)"/></g><g id="Punta_Negra" data-name="Punta Negra"><path class="cls-1" d="M886.81,748.55c3.68,0,4.22,2,6.44,5.22.38.57,1.23,1.26,1.8,1.2,3.79-.34,6.19,2.77,9.36,3.94,2,.75,5.86,2.56,4.68,6.68-.24.83.3,1.63.49,2.44.5,2.09.33,4-1.52,5.58-3.18,2.74-3.44,4.73-1.52,8.75a1.18,1.18,0,0,1-.1,1.24c-1.39,2.86-3.36,5.44-4.17,8.58a2.19,2.19,0,0,1-1.1,1.21c-1.95,1.32-2.37,3.17-2.2,5.39.37,5-5.36,12.84-10.73,14.26-1.61.42-3.2,1.21-4.91,1.67a4.08,4.08,0,0,0-3,3.93c0,3.52-.24,7-.14,10.55a4.17,4.17,0,0,1-1.81,3.85c-2.43,1.69-4.16,4.29-7.8,4.36-2.32.05-1.92,3.27-2.82,5-1.44,2.79-2.73,5.38-6.29,5.73a2.19,2.19,0,0,0-2,2.07c-.11,1.34-1.26,2.57-1.28,3.41,0,3-2.49,4.63-3.44,7-5.82,2.75-11,7.3-18.09,6.61a33.43,33.43,0,0,0-14.11,2,8.54,8.54,0,0,1-5.53.43c-2.75-1.84-8.26.92-10.09,1.83-2.76.92-7,.49-9.18,3.68a6.85,6.85,0,0,1-3.67,2.75c-10.1,1.84-13.68,7.24-17.44,11.93-4.59,3.67-6.43,4.59-11.94,8.26s-7.34,6.43-9.1,10.64c-1.26-.24-.68-1.38-.89-2-1.21-3.9-2.76-7.38-6.44-9.8-2.88-1.89-3.07-5.57-4.11-8.6a6.42,6.42,0,0,0-3.18-3.67,78.67,78.67,0,0,0-11-5.16c-1.37-.53-1.19-1.28-.8-2.24a6.81,6.81,0,0,1,3.28-3.57,17,17,0,0,0,3.79-2.17c3.26-2.71,6.66-4.89,9.18-8.26,2.1-2.81,3.65-3.59,6.42-5.5a12.22,12.22,0,0,1,3.68-1.84c4.79-.22,6.11-3.42,9.17-6.43,2.84-2.77,5-5.4,9.18-5.5a6.91,6.91,0,0,0,4.59-2.76c1.84-.91,1.33-2.7,4.59-.91a4.83,4.83,0,0,0,6.43-1.84,62.07,62.07,0,0,1,5.5-8.26c1.3-1.66,2.61-1.74,4.59-1.84a23.79,23.79,0,0,1,3.68,0c5.27,1,6.81-2.42,11-4.59a16.26,16.26,0,0,0,2.75-2.75c4.91-5,8.42-9.07,13.77-12.85a47.78,47.78,0,0,1,3.84-2.85,21,21,0,0,1,5.17-2,15.82,15.82,0,0,0,6.6-3.43,81.88,81.88,0,0,1,14.68-11,13.45,13.45,0,0,0,5.51-7.34c.85-3.21,3.75-3.77,5.51-6.42S875,770,874,766.9c-.83-2.46-1.07-4.24.92-5.5,2.34-1.49,3.92-2.93,4.59-5.51C880.3,752.69,884.06,747.63,886.81,748.55Z" transform="translate(-372.48 -153.06)"/></g><g id="Punta_Hermosa" data-name="Punta Hermosa"><path class="cls-1" d="M728,872.46a8.54,8.54,0,0,0-1.66-4.83c-1.85-2.66-3.51-2.57-5.42.11-.43.61-.87,1.21-1.45,2a79.6,79.6,0,0,0-4-7.67c-1-1.87-2.17-3.4-3.13-5.07s-1.25-3.58-3-4.85c-.51-.37,0-1,.19-1.51,1.88-4.14-.25-7.86-4.85-8.82-2.05-.42-2-2.67-2.88-4.06,1.62-2.1,3.88-3.52,5.71-5.42,3.7-3.87,7.55-7.61,11.12-11.61a8,8,0,0,1,2.72-2,3.38,3.38,0,0,0,2-1.57c1.72-4.11,5.54-5.31,9.2-5.47,6.39-.3,10.25-3.42,13.4-8.66a13.55,13.55,0,0,1,12.34-6.71,42.41,42.41,0,0,0,12.48-2,6.39,6.39,0,0,0,3.88-3.07c.66-1.14,1.26-2.31,1.91-3.46,1.88-3.34,3.21-3.72,6.52-1.9,2.23,1.22,4.59.82,6.91.5a18.33,18.33,0,0,1,7.56.07c3.2.91,5.5-.23,7.45-2.62a19.51,19.51,0,0,0,2-3,4.54,4.54,0,0,1,4-2.65,16,16,0,0,0,3-.57c2.26-.51,3.53-1.87,3.25-4.22-.57-4.69,1.17-8.4,4.39-11.68a8,8,0,0,1,4.47-2.72,7.26,7.26,0,0,0,4-1.94c1.48-1.41,3.42-1.94,5.26-2.64,3-1.17,5.11-3,5.2-6.58.1-4.43,3.64-5,6.65-7.55,1.74-1.48,5.51-5.51,7.35-7.35.92-.92,7.41-5.91,12.85-7.34,2.15-.57,4.5-2.72,6.42-3.67s1.92.07,1.65,1.33c-.72,3.3,1.53,4.9,3.42,6.79,1.72,1.71,2.89,3.73,2.51,6.26-.49,3.33,4.33,6.28,4.36,9.48,0,0,0,.92-2.76,1.84-3.67,1.83-4.51,3.32-5.51,6.42a12.73,12.73,0,0,1-5.5,6.43c-2.38,1.49-1.74,4.58-.92,7.34.74,2.49-.18,3.52-1.84,5.51a51.16,51.16,0,0,1-4.59,5.51,3.87,3.87,0,0,0-.91,1.83c-.74,4.94-3.6,6.11-7.35,8.26a44.65,44.65,0,0,0-9.18,7.35,14.44,14.44,0,0,1-9.17,4.59,12.23,12.23,0,0,0-4.59,1.83c-6.43,5.51-9.47,6.62-14.69,11.93-.46.48-3.49,3.06-3.67,3.68-.7,2.39-3.67,2.75-4.59,4.59a10.54,10.54,0,0,1-8.26,1.83c-7-1-9.73,4.43-12.85,9.18-.47.71-1.34,2.06-1.84,2.75-1.39,2-2.49,2-4.59.92-3.09-1.64-4.51-1.92-6.42.92-1.48,2.19-2.73,2.85-5.51,2.75-2-.07-5,2.42-6.43,3.68s-2.36,2.34-3.67,3.67c-2.57,2.6-4.66,3.54-8.26,4.59-3.4,1-7.81,4.29-10.1,7.34-2.54,3.4-3.73,5-7.34,7.34a21.36,21.36,0,0,0-3.67,2.76C730.72,871.67,729.35,873.64,728,872.46Z" transform="translate(-372.48 -153.06)"/></g><g id="Cieneguilla"><path class="cls-1" d="M818,553c2,.8.3,3.77-.08,5.27-1.21,4.83-1,9.91-2.23,14.64a55,55,0,0,0-2.18,14.87c0,1.28-.34,2.8,1.33,3.36s2.76-.29,3.84-1.3a10.67,10.67,0,0,0,1.24-1.45c1-1.4,1.87-2.07,3.81-1,3.42,1.85,6.58.35,8-3.37,1-2.61,1.78-3,3.7-1,3.05,3.07,6.83,5.3,9.62,8.63a8.64,8.64,0,0,0,2.87,2.24,7.44,7.44,0,0,1,3.86,3.51c1.48,3.06,4.83,3.88,7.38,5.18,4.11,2.1,6.75,5.38,9.79,8.5a11,11,0,0,1,3.42,6.63c.45,3.48,3.67,5.29,5.8,7.64,1.13,1.25,2.39,2.22,2.75,3.93.83,3.85,4,6,6.41,8.63.57.61,1.27,1.11,1.81,1.76.41.49.2,1.05-.21,1.52s-.73.32-1.18,0c-2.44-1.66-5.1-3-6.85-5.55-1.39-2-3.29-2.55-5.67-2.2-3.08.45-5.65-1.44-8.4-2.3a9.31,9.31,0,0,1-6-5.7c-.76-1.92-3.63-2.09-5.05-.49-2,2.3-4.61,4.14-6,7-.34.73-.54,1.12-1.63.63-2.14-1-4.45-1.55-6.38.62-.51.57-1.53.71-1.77.31-1.24-2-3.87-1.14-5.34-2.73A1.75,1.75,0,0,0,832,631c-1,1.57-2.54,2.49-3.69,3.82-.82.95-1.48,1.92-2.94,1.77a1.34,1.34,0,0,0-1,.4c-1.2,1.67-2.78,3.24-3.39,5.12s-.11,3.7,1.39,5.61,4.93,6.1,2.66,7.52-4.23-.34-6.07,5.17a5.12,5.12,0,0,1-3.67,2.75c-3,.32-6.06.55-8.26,2.76s-5.45,3.3-8.26,4.59c-2.4,1.09-4.24.32-6.43,1.83-1,.67-3.67,2.76-5.51,2.76-3.73,0-3.53-.33-7.34-.92-3.32-.52-6.42-.92-10.1.92a23.69,23.69,0,0,1-3.67,1.83c-2.82.25-5.6,2.69-8.26,2.75-6.09.15-9.63,1.5-15.6,0a7.65,7.65,0,0,0-6.43.92c-4.61,2.6-8,1.62-12.85,3.67-4.63,2-7.62,1.7-10.1-2.75a8.3,8.3,0,0,0-.91-1.84c-4.57-5.48-8.55-10.3-11.89-17.33a28,28,0,0,0-4.64-6.53c-3.67-3.67-4-6.45-7.34-11a44.15,44.15,0,0,1-4.59-7.34,27.74,27.74,0,0,0-2.75-4.59c-2.76-3.67-12.27-17.23-14.69-21.11-2.84-4.56-3.5-5.86.92-9.18,3.67-2.75,7.34-3.67,12.85-6.42a43.43,43.43,0,0,0,7.34-4.59c5-4.31,10.07-5.18,16.53-3.67,5.06,1.18,9.58,1,14.68,1.83,2,.33,4.47.25,6.43.92a11.16,11.16,0,0,0,9.18-.92,60.56,60.56,0,0,0,8.26-5.51c2-1.71,4.06-2.5,6.42-3.67a49.49,49.49,0,0,0,9.18-5.5c.7-.53,1.89-1.84,2.75-1.84,8.27,0,11.85-2.2,18.36-2.75.94-.08,3.65,0,4.59,0,4.18-.17,6.94-4.39,8.26-8.27,1.21-3.53,3.13-5,6.43-6.42,2.33-1,5.1-1.52,7.34-2.75,2.42-1.34,3.91-1.68,6.43-.92C814.4,553,817.18,552.72,818,553Z" transform="translate(-372.48 -153.06)"/></g><g id="Pachacamac"><path class="cls-1" d="M826.07,657.19c1.44,1.37,3.16,1.4,5,1.13,6.17-.91,9.86.31,12.36,7.81.54,1.61,1.81,1.46,2.88,1.76,3,.86,4.49,4.19,7.85,4.65-4.09,1.14-6.23,4.56-8.93,7.28-2.35,2.36-2.28,3.92.06,6.16.54.52,1.23.94,1.15,1.82-.43,5,2.3,8.16,5.52,11.54,2.09,2.2,5.16,3.15,6.71,5.89.25.45.8.77.72,1.37-.29,2,1,2.57,2.42,3.53,2.29,1.52,4.19,3,7,1.27.51-.31,1.83.35,2.54.87,1.24.92-.18,1.52-.48,2.27-.86,2.12,1.11,3.43,1.52,5.2a1.85,1.85,0,0,1-2.13.09c-2.93-1.5-6.11-2.51-8.87-4.31-4-2.61-8.9-2.55-12.42.69a6.32,6.32,0,0,1-6.3,1.66c-3-.58-5.81-1.51-8.76-2a6.18,6.18,0,0,1-4.91-3.36c-1.74-3.45-4.6-4.72-8.35-5.35-3.92-.66-7.95-.9-11.73-2.73-4.23-2.05-10.77,1.27-12.08,5.88-.85,3-2.12,5-5.62,5.23-2.26.14-3.76,2.05-5.22,3.64-1.67,1.82-3.49,3.06-6.12,2.92a7.4,7.4,0,0,0-4.53,1.4c-3.08,2.15-6.53,3.67-9.48,6-5.1,4.1-11.15,4.34-17.18,3.32-4.49-.76-8.75-.91-13,.78a33,33,0,0,1-6.24,1.81,3.44,3.44,0,0,0-3.23,3.31c-.46,4.5-3,7.38-7.13,9a22.65,22.65,0,0,0-5,2.66,7.22,7.22,0,0,1-4.46,1.55c-3.08-.12-5.33,1.62-7.7,3.14-1.56,1-1.9,2.4-.65,3.81a4.29,4.29,0,0,1,.7,5.17c-.65,1.39-.14,2.73.36,4.09.79,2.13.09,3.14-2.33,4.29-2,1-2.9,0-3.71-1.67-1.5-3.1-2.38-3.28-5.4-1.38-3.9,2.46-5.47,2-7.11-2.37a7.23,7.23,0,0,0-4.37-4.77,3.5,3.5,0,0,1-2.26-4.57c.23-.86.46-1.85-.59-2.18-4.53-1.47-6.88-5.73-10.64-8.18a16.65,16.65,0,0,0-2.39-1.47,9.09,9.09,0,0,1-4.43-12.62c2.46-4.85,4.31-10,7.28-14.59A2.9,2.9,0,0,0,666,715c-1.72-2.09-1.67-4.12-.45-6.52,1.65-3.23.63-6.63-.31-9.85a10.46,10.46,0,0,0-6.32-7.11,7.91,7.91,0,0,1-4.65-5.4c-.92-3.42-2.85-6.34-4.59-9.34a11.08,11.08,0,0,0-5.88-5,8.76,8.76,0,0,1-5.16-4.56c-.73-1.56-.65-2.91,1.43-3,2.31-.08,3.6-1.37,4.58-3.21,1.43-2.66,3.35-4.48,6.66-4.32a2.69,2.69,0,0,0,2.9-2.54,11.57,11.57,0,0,1,3.51-6.58,5.51,5.51,0,0,0,1.21-6.49c-1.13-2.72-.42-3.65,2.64-4.09,4.87-.6,7.72-10.47-1.24-17.94-1.4-1.61-.67-4.54-.25-6.87.15-.84.59-1.7,1.59-1.74s1.13.83,1.61,1.4c2.82,3.4,4.48,7.61,7,11.05,3.12,4.26,5.49,9,8.67,13.08,4.28,5.53,7.65,11.54,11.18,17.5a6.07,6.07,0,0,0,1.3,1.83c5.74,4.44,8,11.21,11.56,17.13a34.67,34.67,0,0,0,3.14,4c2,2.48,4.33,4.66,5.65,7.7,1.13,2.59,5.32,4,8.68,2.83a53.54,53.54,0,0,1,11.72-2.94,5.12,5.12,0,0,0,2.37-.89c2.67-1.51,4.5-1.51,7.26-1.51s2.75.73,4.8.64c2.82-.12,5.65,0,8.47,0A9.52,9.52,0,0,0,760,681c.17-.1,7.8-2.31,11.23-4.11a13.56,13.56,0,0,1,7.32-.88c3.67,1.84,7.45,1.84,11,1.84,1.83,0,3-2.26,3.67-2.75,4.31-3,7.18-2.61,11.58-5.17,4.24-2.47,8.34-4.75,13.18-5.79,1.89-.4,2.67-2.52,3.71-4.09S823.8,656.94,826.07,657.19Z" transform="translate(-372.48 -153.06)"/></g><g id="Lurin"><path class="cls-1" d="M696.81,833.91c-4.3-4.49-8.3-6.51-14.13-8.44-1.79-.6-2.68-2.33-4.46-2.85-4.75-1.37-9-3.94-13.7-5.6a24.57,24.57,0,0,1-9.32-6.48c-2.84-3.06-5.87-6.23-9.82-8.16-4.48-2.19-8.11-5.55-11.93-8.67-2.26-1.84-6-3.72-7.57-5a.75.75,0,0,1,0-1.15,24.91,24.91,0,0,1,4.83-2.32c5-2.06,8.21-6.22,10.1-11,1-2.57,2-6.2,4.59-7.35,2.12-.92,3.65-1.85,3.74-4.36a15,15,0,0,1,.91-4c1.23-3.21,1.5-5.34,5.44-6.27,2-.46,4.32-.9,5.51-2.76a2.05,2.05,0,0,1,2.76-.91c2.12,1.84,4.68,3.24,6.42,5.5a8.31,8.31,0,0,0,2.75,1.84c1.94.91,1.94,1.26,1.84,3.67-.07,1.67,2.09,4,3.67,4.59,2.49.91,2.84,2.26,3.67,4.59,1.54,4.28,4.5,6.06,8.26,3.67,3-1.89,3.68-1.83,4.59,0,.79,1.57,2.54,3.84,4.59,2.76,3.67,0,6.46-4.29,5.51-6.43a7,7,0,0,1,0-5.51c.6-1.45,1-2.46,0-3.67-1.28-1.59-1.7-2.56,0-3.67,2.46-1.6,3.67-.92,6.43-.92.37,0,3.67-.92,4.59-2.75,2.75-2.76,5.68-2.05,9.17-5.51a14.13,14.13,0,0,0,3.68-6.42,2.67,2.67,0,0,1,2.55-2.61,26.82,26.82,0,0,0,5.44-1.54c4.85-2,7.54-1.11,12.2-.44,5.93.84,12.48,1.28,17.44-2.76,3.09-2.51,5.16-3.06,8.26-5.5a21.28,21.28,0,0,1,4.59-1.84c4.55.15,6.18-2.52,9.18-5.51,1.08-1.07,2.1-2.6,3.67-2.75,2.49-.24,6-2.25,6.43-4.59.81-4.4,2.13-4,5.84-5.65a4.36,4.36,0,0,1,3,0c5.41,2.22,8.48,2.88,15.06,3.82,2.26.55,2.62.74,3.67,2.76,1.84,3.67,5,4.06,8.26,4.59s7.09.68,10.1,1.83c1.62.62,5.34-.48,6.43-1.83,3.67-2.76,5.5-1.84,8.26-.92l7.34,3.67c3.67.92,1,1.61,0,1.84-2.84.65-5.51.91-8.26,3.67a75.65,75.65,0,0,0-11.93,10.09c-5.51,4.59-9.21,5.26-9.18,10.1,0,2.55,0,4.59-3.67,5.51-5.51,0-4.59,3.67-9.18,4.59-6.43,1.83-9.26,9.08-9.18,14.68-.92,2.76-.92,2.76-4.59,3.68a7.51,7.51,0,0,0-4.54,3.56,15.18,15.18,0,0,1-2.41,3.34c-1.82,2-1.64,2.53-4.07,2.27-4.14-.43-5-.81-9.17-.91-2.76.91-6.07.8-7.35,0-2.27-1.42-6.56-1.09-8.26.91-.43.51-.63,2.18-.92,2.76-2.75,5.51-4.61,5.79-10.09,6.42-2.71.31-5.56-.26-8.26,0a15.39,15.39,0,0,0-10.1,5.51c-1.2,1.45-2.62,4-3.67,5.51-1.93,2.85-5.9,3.7-9.18,3.67a11.88,11.88,0,0,0-5.51.92c-2.75.92-4.31,2.25-4.59,2.75-1.83,4.59-7.59,6.52-11,11C705.07,828.4,700.48,835.75,696.81,833.91Z" transform="translate(-372.48 -153.06)"/></g><g id="Villa_Maria_del_Triunfo" data-name="Villa Maria del Triunfo"><path class="cls-1" d="M617.31,665.83c5-.14,9.56,1.7,13.41-.81,1.94-1.27,3.6-.41,4.59,1.83,1.74,3.93,4.06,6.18,8.26,7.35,1.67.46,3.82,3.27,4.59,4.59a26.85,26.85,0,0,1,3.67,8.26,11.86,11.86,0,0,0,6.43,7.34c3.87,1.63,4,3.64,4.59,7.34.49,3.18-.92,5.51-.92,8.27s.72,5.14,1.84,6.42-.12,1.24-.92,2.75c-2.76,6.43-4.25,10.6-4.59,11-3.81,4.58-3.67,11.93.75,14.38,1.35,2.13.88,3.12-1.31,4-1.73.7-3.4,1.53-5.14,2.24-3.19,1.32-3.93,4.59-5.07,7.41-.62,1.55-.66,3.32-1.16,4.93-.61,2-2.32,2.48-3.91,1.16a3.33,3.33,0,0,0-2.38-.57c-3.61-.06-5.34-1.69-6.82-5.07-2.41-5.53-3.77-11.52-7.14-16.65a29,29,0,0,0-3-3.7,7.81,7.81,0,0,1-2-2.67c-1.34-4.61-5.48-7.78-6.33-12.64a2.37,2.37,0,0,0-3.21-1.94c-2.77.87-5.65-.09-8.38.78-1.29.42-1.39-.57-1.44-1.44-.08-1.59-.14-3.19-.15-4.79,0-2.37-.15-4.63-1.63-6.7s-1-4.93-1.36-7.4c-.57-3.66-2.85-6.81-2.3-10.88a17.79,17.79,0,0,1,2.64-7.25c1.91-3.06,3.53-6.47,7.25-7.93,2.07-.82,2.73-2.69,3.27-4.64,1.29-4.68,1.44-4.78,6.16-4.91C616.43,665.89,617.27,665.83,617.31,665.83Z" transform="translate(-372.48 -153.06)"/></g><g id="Villa_el_Salvador" data-name="Villa el Salvador"><path class="cls-1" d="M621.75,786.66a5.47,5.47,0,0,0-3.83-2.68c-4.77-1.08-8.67-3.91-12.9-6.08-5.06-2.62-10.19-5.1-15.32-7.6a17.24,17.24,0,0,1-3.86-2.27c-3.17-5.34-5.82-10.87-6.13-17.22a1.82,1.82,0,0,1,.19-1.11c3.12-4.67,1.66-10.24,2.94-15.3.57-2.23,1.2-3.36,3.55-3.32,2.92,0,5.84,0,8.75,0,2.36,0,4.07-.94,4.85-3.13,1.13-3.18,3.5-4.22,6.6-4.21a2.61,2.61,0,0,0,.56,0c4.06-.89,5.89.57,8,4.52,2.37,4.51,4.47,9.38,8.14,13.37A26.51,26.51,0,0,1,629.17,753a42.35,42.35,0,0,0,4.14,9.55c1.09,2,3.1,2.92,5.27,3.48,3,.79,3.17,1.37,1.85,4.33s-2.47,5.91-4.71,8.51a16,16,0,0,1-7.48,5.18c-1.24.39-2.56.63-3.46,1.82C624.3,786.18,622.35,787.85,621.75,786.66Z" transform="translate(-372.48 -153.06)"/></g><g id="Chorrillos"><path class="cls-1" d="M534,696.17a6.77,6.77,0,0,0,2.51.15c4.56-1.53,7.84,1.24,11.38,3.2.91.5,1.74.85.33,1.84-1.62,1.14-1.53,2.68-.51,4.2,1.2,1.79,2.38,3.61,3.68,5.32,1.75,2.3,3.36,2.3,5.28.14.56-.63,1.18-1.21,1.7-1.88,1.07-1.37,1.95-.92,3,.12,2.79,2.89,3.73,3,7.27,1,.53-.29,1-1.18,1.67-.65a1.58,1.58,0,0,1,.18,2.08c-2.69,4.2-3.07,8.89-3.09,13.69,0,3.4,1.1,6.25,3.91,8.25a2.16,2.16,0,0,1,.9,1.32c.77,3.73,3.1,6.9,3.89,10.61a21.64,21.64,0,0,0,2,5.52c.85,1.62,1,6.12,2,7.9,1,3,2,6,3.21,7-7.17-.57-12.56-5.46-19-7.84s-13.06-4.45-19.11-7.59c-5.09-2.64-11.06-3-15.66-6.65-1.44-1.14-3.29-.47-4.94-.7-1.42-.2-2.28-.48-1-2.26,2.8-4,2.31-5.79-2-8.33-1.43-.85-2-1.53-.47-2.86,1-.9,1.05-2,.28-3.28-2-3.21-1.33-5.54,1.86-7.43,3.4-2,3.58-3.29,1.69-6.67-2.72-4.87-4.07-5.1,2.64-6.3,2.25-.4,3.91-1.6,3.77-4.13S533.85,698.43,534,696.17Z" transform="translate(-372.48 -153.06)"/></g><g id="SJM"><path class="cls-1" d="M610.28,664.58c-.89,1.1-1.94,1.79-2,2.55-.34,4.49-3.82,6.27-6.61,9-4.89,4.84-8.34,10.84-7.49,18.33.2,1.77,1.42,3.09,1.74,4.72.5,2.48.11,5.36,1.25,7.43,2.79,5.05,1.8,10.59,2.87,15.83.56,2.79-2.41,6.31-5.26,6.48a51.72,51.72,0,0,1-8.71-.14c-3.08-.34-4.5.88-4.59,3.9-.11,3.65-1.3,7.21-.77,10.92.22,1.53-.73,2.62-2.1,3.61-.68-4.86-3.52-8.82-4.67-13.4a2.63,2.63,0,0,0-.73-1.49c-5.83-3.85-3.7-9.34-2.93-14.47.28-1.87.58-3.83,2-5.41a2.53,2.53,0,0,0,.23-2.71c-2-3.8-.89-7.89-1.21-11.84a62.52,62.52,0,0,0-.45-6.74c-1-5.3,2.24-9.1,4.36-13.3a20,20,0,0,0,1.69-4.15c.67-2.61,2.89-3.4,5.13-1.89,3.2,2.16,4.68,2,6.65-1.19,1.51-2.43,4.15-3.73,5.67-6.1.35-.54,1.2-.88,1.32-1.43,1-4.34,4.55-3.38,7.47-3.83,1-.15,1.22.54,1.73,1.08C606.38,662,607.56,664,610.28,664.58Z" transform="translate(-372.48 -153.06)"/></g><g id="La_Molina" data-name="La Molina"><path class="cls-1" d="M663.77,632c0,2.76-4.46,3.33-5.51,3.68-2.69.88-3.45,3.22-1.84,5.5s.83,3.85-.92,5.51c-2,1.86-3,2.5-2.75,5.51.1,1.39-.67,1.94-1.83,1.83-3.5-.3-5.73,1.77-7.35,4.59-2.13,3.72-3.33,3.71-7.34,2.76-3.18-.76-6.11-.61-8.85,1.41a2.92,2.92,0,0,1-1.53.68c-5.1-.11-10.32,1.45-15.27-.93a8.09,8.09,0,0,1-4.72-5.75c-1.31-5.23-2.75-10.37-7.11-14.33a9.2,9.2,0,0,1-3-8.66,19.09,19.09,0,0,1,3.14-8.84c1.23-1.83.24-3.27-1.62-4A5.58,5.58,0,0,0,591,622c-1.36,1.3-2.61,2.72-4,4-1.67,1.56-2.28.9-3.57-.77-3.41-4.41-.09-7.5,1.56-11a2.21,2.21,0,0,1,1.44-1.27c4.57-1.09,8.28-4.81,13.48-4.17,2.11.27,3.75-1.5,5.49-2.61,1.54-1,2.72-1.43,4,.84s3.36,4.49,6.72,4.05c1.27-.16,2,1,2.69,1.81,1.57,1.73,3.26,2.52,5.43,1,.3-.21.71-.5,1-.45,4.15.81,6.63-1.72,9.07-4.43a4.66,4.66,0,0,1,4.08-1.48,4.17,4.17,0,0,0,2.21-.21c2.45-1.28,4.62-1.8,7.36-.22,1.89,1.1,4.33-.11,6.15-1.17,2.43-1.41,3.73.34,5.17,1.43s0,2.32-.5,3.4c-1.71,3.42-1.89,9,1.27,11.08C664.68,627.38,663.77,630.88,663.77,632Z" transform="translate(-372.48 -153.06)"/></g><g id="Santiago_de_Surco" data-name="Santiago de Surco"><path class="cls-1" d="M569.15,695.06c0,3.47.37,6.93.06,10.43-.2,2.25-1.51,3-3.2,3.76s-2.31-.41-3.24-1.39c-3-3.17-3.08-3.13-6,0a21.64,21.64,0,0,0-1.7,1.89c-.71,1-1.3.88-1.95,0-.76-1.07-1.57-2.11-2.3-3.21-1.06-1.58-2.59-3,.08-4.78,1.36-.9.79-2.39-.59-3.2-1.94-1.13-4-2.13-5.89-3.25-3.41-2-3.94-5.56-1.31-8.59,3.86-4.45,3.87-5.46.12-10-.42-.5-.79-1.05-1.18-1.57s-1-1.22-.27-2c.53-.54,1.08-1.09,1.95-.76a7.06,7.06,0,0,0,6.43-.92c.16-.1.33-.29.48-.27,7.16.56,7.55-6.2,10.7-10a17.23,17.23,0,0,0,1.55-3c1.23-2.28,2.83-3.86,5.75-3.53,2.64.29,5-1.29,7.6-1.52,2.13-.19,3.23-2.81,2.35-4.91a18.3,18.3,0,0,1-1-6.34c-.19-3.62-1.87-7-1.93-10.71,0-1.6.11-2.59,1.18-3.56.91-.82,1.83-1.63,2.78-2.39s1.54-.84,2,.6c1.06,3.53,4.13,4.21,6.9,1.6,1.23-1.16,2.38-2.41,3.57-3.62a4,4,0,0,1,2.66-1.44,2.66,2.66,0,0,1,2.33.76c.65.86-.22,1.62-.75,2.16-2,2.12-3.87,4.23-2,7.39a.68.68,0,0,1,0,.54c-2.66,5.45,1.21,8.46,4.35,11.75,2.9,3,3.55,7.17,5.12,10.85a1,1,0,0,1-1.11,1.43c-6.24-1.94-7.8,3.62-10.71,6.78-1.87,2-4.31,3.56-5.59,6.2-.66,1.35-1.76.85-2.83.09-3.76-2.69-7.58-1.41-8.65,3a21.23,21.23,0,0,1-3.41,7,15.12,15.12,0,0,0-2.52,10.41C569,692.24,569.07,693.65,569.15,695.06Z" transform="translate(-372.48 -153.06)"/></g><g id="Barranco"><path class="cls-1" d="M531.59,679.7a8.38,8.38,0,0,1,1-.45c.92-.46,1.8-1,2.72-1.46,1.46-.76,3.13-3.33,3.84-2.64a18.93,18.93,0,0,1,4.64,6.28c.52,1.34-.39,2.18-1.25,2.86a7.57,7.57,0,0,0-3,6.38c.14,3.19-1.44,3.88-4.12,3.55-.46-.06-.93-.09-1.4-.14,1.57-4.09-.6-7.47-2.35-10.76-.34-.65-.86-1.7-1.18-2.33a.61.61,0,0,1,.26-.8C531.06,680,531.41,679.82,531.59,679.7Z" transform="translate(-372.48 -153.06)"/></g><g id="Surquillo"><path class="cls-1" d="M561.65,655.9a41.69,41.69,0,0,1-7,11.48c-1.62-2.17-2.14-5-3.75-7.2-2-2.71-3.75-3.23-5.94-.89-1.7,1.81-3.31,2.61-5.64,1.66a1.74,1.74,0,0,0-.56,0c-4.46-.1-4.55-.1-4.36-4.58a12.27,12.27,0,0,0-1.25-6.79c-1-1.82-.4-2.87,1.81-2.72a3.23,3.23,0,0,0,1.12,0c2.53-.72,4.29-.64,4.75,2.73.26,1.91,2.13,2.78,4.21,2.18,1.35-.38,2.23-.38,2.61,1.38.32,1.52,2,1.88,3.24,2.47A13.33,13.33,0,0,0,561.65,655.9Z" transform="translate(-372.48 -153.06)"/></g><g id="Miraflores"><path class="cls-1" d="M505.28,653.49c3.5-.24,7.07-1.34,10.34,1a2.22,2.22,0,0,0,1.92.08c3.53-1.81,8-1.81,10.71-5.19,1.37-1.67,2-1.42,2.91.6a15.75,15.75,0,0,1,1.11,7.11,17,17,0,0,0,.4,4.2,2.17,2.17,0,0,0,2.79,2,14.89,14.89,0,0,1,5.87.16c1.91.47,3.15-.79,4.29-2.11,1.41-1.63,2.5-1.85,3.78.35s2,4.6,3.37,7a8.46,8.46,0,0,0-4.39,1.4,3.52,3.52,0,0,1-3,.63c-3.63-1.45-5.84,1.1-8.19,2.85a42,42,0,0,1-5.5,3.85,3.66,3.66,0,0,0-1.11.84c-.37.45-1,0-1.07-.64a4.78,4.78,0,0,0-3.48-4.63c-.54-.17-1.28-.28-1.52-.66-2.1-3.42-5.41-5.55-8.2-8.25-3.22-3.1-5.92-6.73-9.81-9.14A6.73,6.73,0,0,1,505.28,653.49Z" transform="translate(-372.48 -153.06)"/></g><g id="San_Isidro" data-name="San Isidro"><path class="cls-1" d="M497.91,646.8c3.71-1.46,6.42-3.8,7-8,.09-.65.15-1.6.88-1.6,2.69,0,4.09-2,5.81-3.6,1.73,3.82,3.88,4.49,7.88,2.45,3.22-1.64,6.24-2.19,9.3.52a4.59,4.59,0,0,0,5.83.22c4.17-3.29,8.74-1,13.09-1.41,1.17-.1,1.09,1,.6,1.59a11.84,11.84,0,0,0-2.05,11.42c.27.92-.33,1.05-1.08,1.17-1.17.19-2.29.39-2.75-1.08-.22-.71-.26-1.49-.51-2.19-.44-1.22-1.33-2.47-2.6-2.16-4.78,1.15-9.72,1-14,4.79-2.81,2.49-7.14,5.14-12,2.37-2.21-1.25-8.84.87-9,1s-.5.41-.8.23C501.22,651.1,499.63,648.88,497.91,646.8Z" transform="translate(-372.48 -153.06)"/></g><g id="San_Borja" data-name="San Borja"><path class="cls-1" d="M567.05,652.89c-2.33-.37-5-.95-7.63,1.45-1.52,1.41-8-.12-9.57-1.63-1.68-1.67-2.73-10-1.27-12.07,1.77-2.55,3.06-4.93.84-7.87-.4-.53-.53-1.76.59-1.67,2.42.2,4.3-2,6.77-1.35a1.36,1.36,0,0,0,1.09-.14c2.62-2.91,6.13-1.28,9.19-1.74,4.11-.63,6.58,2.13,7,6.33a130,130,0,0,0,2.41,14.25c.31,1.46.32,2.84-1.07,2.83C572.62,651.25,570.29,652.93,567.05,652.89Z" transform="translate(-372.48 -153.06)"/></g><g id="San_Luis" data-name="San Luis"><path class="cls-1" d="M548.74,622.76c2.31-1.75,4.08-3.8,6.84-4.46a15.09,15.09,0,0,0,2.89-1.1c2.67-1.27,3.19-3.4,1.35-5.67-.53-.66-1.45-1.19-.56-2.06s1.3.29,1.84.59c1.22.68,2.25,1.64,3.78,1.72,2.28.12,3,1.5,2.2,3.48-1.46,3.73-1.4,7.14,2.28,10.36a42.52,42.52,0,0,1-5.87.26c-2.11-.2-3.93-.26-5.75,1.32a2.51,2.51,0,0,1-3.87-.64C552.71,624.83,550.84,623.86,548.74,622.76Z" transform="translate(-372.48 -153.06)"/></g><g id="La_Victoria" data-name="La Victoria"><path class="cls-1" d="M545.4,633.38a29.58,29.58,0,0,0-7.88-.26c-2.3.34-2.54-2-2.84-3.15-1-4-3.61-7.08-5.38-10.62a45.84,45.84,0,0,1-3.8-10.81c-.31-1.42.74-1.9,1.76-2a39.34,39.34,0,0,1,5.32-.43,8.09,8.09,0,0,0,4.56-1.13,2.94,2.94,0,0,1,4.42.87c2.22,3.47,5.45,4.08,9.08,3.59,4.44-.6,6.25.2,8,3.9.68,1.45-.5,1.94-1.42,2.2A20.47,20.47,0,0,0,550,619a10.31,10.31,0,0,0-3,3c-.79,1.4-.62,2.51,1.11,3a4,4,0,0,1,1.78.76c.72.81,2.4,1.06,2.19,2.29-.25,1.52-1.83.84-2.85.95-1.37.15-2.16.92-2.09,2.18C547.23,633,546.48,633.59,545.4,633.38Z" transform="translate(-372.48 -153.06)"/></g><g id="Lince"><path class="cls-1" d="M514.17,631.55c-.55-2,.81-2.54,2.34-2.37,1.8.19,2.86-.84,4.27-1.56a24.83,24.83,0,0,1,8.08-2.6c1.87-.22,2.95,1.86,3.29,3.68a14.16,14.16,0,0,0,1.32,3.66c.36.74,1.49,1.49.61,2.42a3.05,3.05,0,0,1-2.93.6,3.66,3.66,0,0,1-1.71-.89c-3-3-6.38-1.8-9.72-.86a6.46,6.46,0,0,0-1,.57C515.39,635.84,514.37,635.26,514.17,631.55Z" transform="translate(-372.48 -153.06)"/></g><g id="Jesus_Maria" data-name="Jesus Maria"><path class="cls-1" d="M516.31,612c3.22,3,4.07,7.28,5.77,11.09.22.51.41,1.34-.55,1.6-2.08.56-3.25,2.87-6,2.53-1.57-.2-3.24.75-3.88,3.22-.44,1.73-2.79,3.11-4.52,4.31a1.62,1.62,0,0,1-2.67-1,2.31,2.31,0,0,0-.62-.94c-2.83-3.05-2.79-3-.2-6.24a131.1,131.1,0,0,1,10.68-11.92A21.61,21.61,0,0,0,516.31,612Z" transform="translate(-372.48 -153.06)"/></g><g id="Magdalena_del_mar" data-name="Magdalena del mar"><path class="cls-1" d="M487.53,635.65c.68-1.8,1.1-.89,2.43-2.22a7,7,0,0,1,5.78-2,7.08,7.08,0,0,0,1.22.05c2.72-.13,4.41,1.69,5.67,3.53s.48,4.25-.73,6.23a6.75,6.75,0,0,1-.7.94,7.26,7.26,0,0,1-9.31.94,27.06,27.06,0,0,0-3.44-2c-1-.27-1.84-.91-1.84-1.83C486.61,636.56,487.45,635.85,487.53,635.65Z" transform="translate(-372.48 -153.06)"/></g><g id="San_Miguel" data-name="San Miguel"><path class="cls-1" d="M473,608.55a7.57,7.57,0,0,1,5.46-.12c1.15.44,2.3.86,3.48,1.2a2.35,2.35,0,0,1,1.93,2.61,18,18,0,0,1-1.75,9c-1.35,2.5-.29,3.61,1.65,4.61a13.93,13.93,0,0,0,2.37.85c1.44.43,3.2.7,3.45,2.42s-.79,3-2.28,3.9a4.38,4.38,0,0,0-2.46,3.79c-.05,1.58-1.56,1.77-2.73,1.27-3.19-1.38-6-3.59-9.36-4.59-5.2-1.54-9.47-5.19-14.75-6.53a4.5,4.5,0,0,1-3.52-2.92c-.55-1.8,1.14-2.95,2.2-3.57,3.31-1.93,3.83-5.07,4.38-8.31.1-.62-.1-1.62.79-1.54,3.1.29,5.5-2.43,8.66-1.85A4.67,4.67,0,0,0,473,608.55Z" transform="translate(-372.48 -153.06)"/></g><g id="Pueblo_Libre" data-name="Pueblo Libre"><path class="cls-1" d="M491.11,615c3.05-.74,7.23-.38,11.2-1.82,1.67-.6,3.58-1.06,5.14.85s1.93,3.23-.27,5.27a60,60,0,0,0-7.69,9.28c-1.45,2-3.84.85-5.44,0-2.88-1.48-5.37-3.68-8.69-4.34-1.22-.25-2-1-1.2-2.49a11,11,0,0,0,.78-2.69C485.84,615,485.83,615,491.11,615Z" transform="translate(-372.48 -153.06)"/></g><g id="Breña"><path class="cls-1" d="M505,610.73c-.77-.24-2,1-2.6-.29-.47-1.09.79-1.76,1.39-2.57.38-.51.89-1.18.83-1.72-.36-3.14,2.34-5.18,2.77-8.06.3-2,1.41-2.12,2.82-.58a5.73,5.73,0,0,0,5,2.15c1.46-.15,2.05.63,1.86,2.07a25.13,25.13,0,0,1-3.43,10.63c-1.54,2.4-2.86,2.47-4.63.32A4.35,4.35,0,0,0,505,610.73Z" transform="translate(-372.48 -153.06)"/></g><g id="Lima"><path class="cls-1" d="M478.83,584.65c7.54-.57,15.07-2.15,22.51.93a12.76,12.76,0,0,0,9.92-.3c1.37-.56,2.43-.6,3.36.85,1.29,2,3.65,2.27,5.66,2.83a48.22,48.22,0,0,1,7.79,2.36c4.11,1.92,8.48,1.26,12.77,1.16,2.14,0,3.32-1.66,4.27-3.3a22.26,22.26,0,0,0,2.21-5.28,1.25,1.25,0,0,1,2.23-.37,35.26,35.26,0,0,1,2.26,3.87c.79,1.5-.58,2.45-1.36,3.41-1.12,1.38-2.6,2.42-3.51,4-2.55,4.47-1.89,7.58,2.4,10.5.59.4,1.17.87,1,1.54s-1,.75-1.66.67c-2.06-.25-4-.65-5.27-2.68-1.73-2.7-4.53-3.29-7.34-1.69-2.19,1.26-4.6.75-6.88,1-5.36.56-6.3,1.74-5.13,6.86a38.07,38.07,0,0,0,4.71,11.44l-4.1,1.79c-1.82-4.88-3.39-9.87-6.73-14-.64-.78-.31-1.58-.13-2.41.45-2,.91-4,1.2-6.07.35-2.49-.94-4.24-3.3-4.19a6.2,6.2,0,0,1-4.7-2c-2.59-2.42-4.25-2.14-5.34,1.27-.92,2.88-3,5.2-3.11,8.54-.05,1.81-2.24,3.21-2.74,5.29a1.75,1.75,0,0,1-1.29,1.15,42,42,0,0,1-10.61,1.07c-1.25-.08-2-.16-2.12-1.76-.09-1.85-1.16-3-3.13-3.44-2.44-.6-4.79-1.61-7.17-2.44.1-1.48.15-3,.33-4.43a1.69,1.69,0,0,1,2.28-1.45c3,.64,5.11-1.4,7.47-2.5a1.81,1.81,0,0,0,.12-3.37c-3.49-1.3-4.53-4.08-5.51-7.14C480,585.71,479.3,585.21,478.83,584.65Z" transform="translate(-372.48 -153.06)"/></g><g id="El_Agustino" data-name="El Agustino"><path class="cls-1" d="M547.45,599.23a11.36,11.36,0,0,1,3.67-6.17c3.7-3.47,3.82-5,1-9.14a14.82,14.82,0,0,0-1-1.71c-1.29-1.37-.38-2.24.7-2.87a12.24,12.24,0,0,1,4.74-1.61c5.72-.7,11.72.1,17-3.15a2.32,2.32,0,0,1,2.41.32c4.78,2.8,9.63,1.43,14.42.15,2.26-.6,4.39-1.64,6.83-1.13.66.13,1.31.11,1.53.92s-.32,1.14-1,1.39a52.54,52.54,0,0,0-6.41,3.41c-2.09,1.67-5.12,2.09-6.82,4.42-1.53,2.1-4,3.25-6.49,4.26a5.17,5.17,0,0,1-5.29-.51c-1.21-.83-2.68-1.52-3.85-.26s-.06,2.6.9,3.62c1.14,1.21,1.53,2.2-.44,2.88-1.16.4-1.5,1.22-.88,2.18a29.5,29.5,0,0,0,3.65,5c1.55,1.52,3.45,2.75,5.7.84.61-.51,1.56-1.09,2.19-.07a1.46,1.46,0,0,1-.67,2.32,23.42,23.42,0,0,0-2,1.48c-1.43.91-2.41,1.6-4-.41-3.78-4.67-10.42-4.2-14.24.55a4.09,4.09,0,0,1-6.89-.49,4.19,4.19,0,0,0-2.18-2.09C548.09,602.58,548,600.8,547.45,599.23Z" transform="translate(-372.48 -153.06)"/></g><g id="Santa_Anita" data-name="Santa Anita"><path class="cls-1" d="M572.65,590.39c5.81,1.63,9.83-1.61,13.69-5.09a32.27,32.27,0,0,1,12.77-7c2.55-.72,5.77-.75,8.69-1,1.89-.19,3.15,1.23,3.17,3.19,0,2.94.09,5.75,1.85,8.37.86,1.3.34,2.74-1.4,3.33a52.45,52.45,0,0,1-5.86,2c-7.28,1.52-13.27,6-20,8.71-2,.84-3.13,1.28-3.52-1.45s-2.34-2.28-4.27-1.68c-1,.32-1.78,1.78-3.26.7s-2.29-2.68-3.33-4.11c-.3-.42,0-.72.34-.91C573.54,594.12,572.87,592.23,572.65,590.39Z" transform="translate(-372.48 -153.06)"/></g><g id="Ate"><path class="cls-1" d="M610.53,574.15c5.32.87,9.19,2.32,14.68,1.83,1.42-.12,6.11-1.11,7.35-1.83,3.22-1.89,5.5-.92,7.34-.92,4.69.31,9.89-.52,13.77-3.67,4.08-3.31,7-3.28,11.93-4.59.36-.1,4.27-1.66,4.59-1.84,5.51-2.75,7.34-2.75,13.77-1.83,5.51.91,12.59-1.25,15.6-2.76a58.59,58.59,0,0,0,7.35-3.67c1.86-1.28,2-4.1,1.83-6.42,0-.43.77-3.26,1.84-1.84,2.75,3.67,4.68,4.2,6.42,4.59a36.67,36.67,0,0,1,6.43,2.75c1.83.92,3.47.73,5.51.92a9.18,9.18,0,0,0,6.42-3.67c.81-1.08,2.76-1.84,3.67.92,1.84,2.75,2.81,4.12,5.51,3.67a16.83,16.83,0,0,1,2.75,0c2.4.34,5,.82,6.43,2.75a17.28,17.28,0,0,1,1.84,7.35c0,3.67,2.75,6.42-1.8,8.42-1.32.7-2.41,1.88-3.77,2.47-5.9,2.59-10.86,6.68-16.23,10.12-3,1.93-6,2.8-9.59,1.59-4-1.37-8.34-1.49-12.51-1.88-4.94-.46-9.67-2.34-14.74-1.84a18.78,18.78,0,0,0-11.66,4.92,16.67,16.67,0,0,1-5.15,3.3c-5.33,2.34-9.26,4.34-14.51,6.86a11.1,11.1,0,0,0-4.59,4.59c-1.29,1.14-1.58,1.16-3.85-1.09-.82-.83-2.3.21-3.44.62-2.42.88-4.82,2.48-7.3.1a1.23,1.23,0,0,0-1-.26c-4.81,1.84-10.83.59-14.38,5.65a4.07,4.07,0,0,1-4.13,1.86c-.55-.07-1.29-.22-1.66,0-3.12,2.28-5,.2-7-1.82-.47-.48-1-1-1.7-.82-3.06.89-4.57-1.14-5.68-3.29-1.3-2.54-3-3-5.23-1.59a22.56,22.56,0,0,1-10.15,3.4c-3.74.45-7.54,2.38-10.76,4.5-2.53,1.65-4,4.91-4.47,7.9-.42,2.64-1.87,4-3.6,5.53-3.46,3-3.18,2.78-6.18-1-2.22-2.81-2.43-5.33-1.43-8.55,1.1-3.54,0-5-3.56-5.8a3.15,3.15,0,0,1-.55-.12c-1.53-.62-3.38-1.07-3.8-2.84-.25-1,4.91-3.26,6.13-2.61,2,1.07,4.37,1.56,5.61,3.93.74,1.42,2.42,1.08,3.54.38,5.41-3.39,12.06-3.78,17.39-7.33,5.57-3.7,12.2-4.7,18.27-7.11,3.08-1.21,4.15-3.78,2.44-6.54a10.91,10.91,0,0,1-1.42-6.17c0-4.9-3-7.18-7.74-5.86-.9.26-1.77.67-2.69.84-1.21.23-1.62-.64-1.85-1.63s.31-1.29,1.17-1.5C604.38,572.69,607.77,573.43,610.53,574.15Z" transform="translate(-372.48 -153.06)"/></g><g id="Chaclacayo"><path class="cls-1" d="M826.54,543.49c-.7.63-1.64.21-2.45.38-4.28.9-7,1.82-6.12,6.41.18.9-4.87.3-4,0a15.1,15.1,0,0,0-11,1,33,33,0,0,1-5.44,2.32c-4.22,1.44-7.27,4-8.71,8.51a7.48,7.48,0,0,1-7.09,5.59c-5.62.15-11,1.45-16.36,2.87s-7.08.92-7.08-4.66a16.54,16.54,0,0,0-3.68-10.78,4,4,0,0,0-3.22-1.4c-1.6-.05-3.2-.11-4.8-.21-3.06-.21-4.87-1.48-6.58-4.32-1-1.65-1.91-1.65-3.27-1.23a9.13,9.13,0,0,0-4.27,2.66c-2,2.26-6,2.87-8.06.86s-4.38-2.77-6.91-3.54c-1.88-.57-4.18-1.08-4.64-3.24-.49-2.33,2.63-3.12,4.12-4.5s2.26-2.43,4.17-2.63a27.22,27.22,0,0,0,7.62-2,8.3,8.3,0,0,1,3.55-.84,54.75,54.75,0,0,0,16.46-1.78,43,43,0,0,0,5.12-1.52c4.39-1.79,8.87-3.2,13.69-3,2.52.11,4.1-2.05,6.45-2.47,2.61-.47,4-1.52,6.28-1.39,2.74.16,4.89-1.66,7.27-2.74,3-1.37,6.25-1.25,9.39-1.74a13.26,13.26,0,0,0,8-3.84c2-2.08,2.57-1.9,4.66,0a10.57,10.57,0,0,1,3.27,5.15,92.7,92.7,0,0,0,3.44,9.26,5.65,5.65,0,0,1,.66,2.44c-.49,4.57,2.9,6.37,5.9,8.47C823.71,542.14,827.15,542.94,826.54,543.49Z" transform="translate(-372.48 -153.06)"/></g><g id="Lurigancho"><path class="cls-1" d="M868.46,531c-4,1.92-4.68-2.17-8.27.91-1.43,1.24-1.78,2.89-3.67,3.68s-5.56,4.37-7.34,3.67c-1.62-1.64-16.52,3.67-20.19,1.83-3.89-1.26-6.43-1.83-9.18-6.42-.79-5.43-3-8.56-4.59-13.77a21.86,21.86,0,0,0-2.76-4.59c-1.3-5.47-7.73-5.86-11-1.84-2.53,2.79-3,3.51-6.43,3.68-2.39.12-4.2,0-6.42.91-2.71,1.09-6.19,2.69-9.18,2.76a11,11,0,0,0-6.42,1.83,28.3,28.3,0,0,1-11,1.84c-2.75.92-4.34,1.33-8.26,2.75-4.59.92-6.85,2.3-11.93,2.76-4.74.42-6.53-1.23-11,.91a55.15,55.15,0,0,1-7.34,2.76c-2.57.35-7.37,1.63-9.18,3.67a25,25,0,0,1-3.67,3.67c-3.08,2.05-4.3,2.84-4.57,6.39-.22,2.92-1.63,4.5-4.35,5.1s-4.78,2.2-7.38,2.78a52.9,52.9,0,0,1-16.21,1.31c-2.4-.2-4.64.7-6.83,1.53a73.76,73.76,0,0,1-10.5,3.26c-3.69.79-6.51,3.33-9.66,5.16a14.42,14.42,0,0,1-8.51,2.34,32.41,32.41,0,0,0-14.05,2.2c-3.92,1.51-7.44,1.08-11.57.22-4.59,0-5.5-1.83-9.18-1.83-1.66.3-3.49,1-3.67-.92-.5-5.39-4-10.71-8.26-13.77-2.2-1.59-3.46-1.84-5.51-3.67-2.65-2.39-3.4-3-.91-5.51,2.12-2.12,4.94-8.53,5.5-9.18,4.71-5.42,6.3-10.11,9.18-16.52.67-1.49,2-5.75,1.84-7.34,0-2.76.92-5.51,4.59-6.43,9.18-1.83,8.26-5.51,11.29-8.53a1,1,0,0,1,.79-.18c2.64,1.66,4.87,3.48,6,6.72.91,2.71,3.62,4.63,3.28,8.07-.13,1.35,2.93,1.67,3.85.12,1.18-2,3.33-2.35,4.89-3.65.27-.23.86-.55,1-.45,2.29,2,5.7.82,8,2.74a2.22,2.22,0,0,0,2.05.69c4-1.58,9-.37,12.26-4.38a9.75,9.75,0,0,1,7.24-3.35c3-.16,5.18-2,7.88-2.69,3.45-.9,6.19-3.58,9.87-4.1,2.06-.29,3.36-1.93,4.68-3.4,3.14-3.49,6.81-3.68,10.13-.29,2,2,3.81,4.1,7,4.05,1,0,1.49,1,2.11,1.73,1.75,1.93,3.49,1.73,4.12-.67a8.35,8.35,0,0,1,2.54-4.25,2.51,2.51,0,0,0,1-2.23c-.67-3,1.76-4.22,3.13-6.25,3.78-5.58,8.53-2.52,12.88-2,2.1.26,4.18.74,6.34.82,5.12.18,8.89-2.61,11.73-6.21a22.82,22.82,0,0,1,12.38-8c2.55-.69,3.67-2.77,5.45-4.1,2.21-1.65,4.65-3,6.74-4.9,1.57-1.42,3.91-2,5.93-2.88.81-.36,1.68-.71,1.9-1.55.94-3.56,3.81-4.19,6.73-4.09a10.52,10.52,0,0,0,8.52-3.42,18.1,18.1,0,0,0,3.51-7.85c.59-2.9,2.83-4.54,4.73-6.42.89-.88,1.25-.25,1.37.71.64,5,3.37,8.13,8.42,9.09.8.15,1.17.88,1.64,1.46,2,2.45,4.3,3.89,7.71,3.48,4.13-.5,7.61,1.11,10.75,3.88,2.07,1.83,2.47,4.34,3.51,6.58a7.7,7.7,0,0,0,4.09,4.3,10,10,0,0,1,6.44,7.93c.22,1.35,3.6,2.17,3.93,2.6,1,1.35,2.49,1.48,4.05,1.5,3.81.06,5.09,2.35,3.28,5.75-2.06,3.85-2.3,4.16,1,6.72a90.67,90.67,0,0,1,14,14c1.9,2.25,4.3,2.93,5.22,6.6.92,1.15,1,1.78,0,2.76-2.08,2.1-3.22,1.77-.92,4.59a2.15,2.15,0,0,1-.92,2.75c-4.65,1.09-6.93,3.23-10.1,6.42A14.34,14.34,0,0,1,868.46,531Z" transform="translate(-372.48 -153.06)"/></g><g id="Rimac"><path class="cls-1" d="M528.84,551.2a17,17,0,0,0,1.1,3.5c.86,2.83,3.49,5.68,6.24,9.35,1.83,1.84,1.83,4.59,1.83,5.51,0,1.83,0,.92-.91,1.83-3.05,2.79-.92,9.18,1.83,11,2.21,1.47,1.87,2.74,3.67,4.59.59.6-.4,3.42-2.16,3.46-3.43.08-6.89.74-10.31-.65a48.56,48.56,0,0,0-8.85-2.74c-3.73-.73-4.29-1.72-4.24-5.65,0-1,0-2.08.08-3.11a3.94,3.94,0,0,0-1.89-3.78,10,10,0,0,1-4.36-7.5c-.11-1.88-2.52-3.28-1-5.53,1.49,1.12,1.09,3.09,2.08,4.41s2.09,1.89,2.93,0C517.93,559.12,524.25,554,528.84,551.2Z" transform="translate(-372.48 -153.06)"/></g><g id="Independencia"><path class="cls-1" d="M513.27,564.2c-.59-4-2.86-5.79-5.74-7.1-1.17-.53-2.18.11-3.27.31-3.08.56-3.27.06-3.56-3-.46-4.78-.7-9.66-2.57-14.17-1.07-2.6-.26-5.21-.36-7.81,0-1,1-.9,1.72-1.06a15.3,15.3,0,0,0,10.76-8,5.71,5.71,0,0,1,5.84-3.12c3.51.2,6.39-.32,8.55-3.56,1-1.47,2.71-2.43,4.8-.63,1.23,1.21.36,3.13-.6,4.88-1.68,3-2.78,6,0,9.18.31.36,1,.4.91.92-.4,3.62-2.75,11.15-2.75,13.76v3.68a4.17,4.17,0,0,1-1.84,2.75c-2.84,1.64-3.35,3-5.65,5.22S514.84,560.71,513.27,564.2Z" transform="translate(-372.48 -153.06)"/></g><g id="Los_olivos" data-name="Los olivos"><path class="cls-1" d="M489.34,477.79c.09,5.81,1,11.26.59,16.8-.26,3.82,1.91,7.35,1.41,11.29-.17,1.36,1.65,2.4,2.86,2.83,2.9,1,2.73,3.45,3.48,5.71,1.58,4.76.74,10,3.07,14.56-5.05.87-7.22,6-4.58,11.69a11,11,0,0,1,1.15,6c-.25,2.11,1.27,3.7,1.36,5.69.26,5.25-.36,5.32-4.51,6.52-3.27.95-6.61.45-9.7,1.62-1.41.54-1.85,0-2.06-1.28a31.07,31.07,0,0,0-3-9.55c-.48-.89-.69-2,.06-2.63,3.13-2.6,3.43-6.76,5.64-9.88,1.14-1.6.39-3.09-1.72-3.46-1.48-.25-3-.38-4.68-.6.76-1,2.52-1.19,2.21-2.85-.28-1.5-1.69-1.66-2.67-2.26-1.34-.82-1.53-1.22-.1-2.27,2.82-2.08,3.68-4.8,2.35-8.25a22,22,0,0,1-1.16-9.42,60.24,60.24,0,0,0,0-10.14c-.45-4.05,2.14-6.82,4.11-9.8,1.36-2.07,2.65-4.09,2.82-6.63C486.38,479.57,487.82,478.86,489.34,477.79Z" transform="translate(-372.48 -153.06)"/></g><g id="Comas"><path class="cls-1" d="M507.29,450c1.71-1.29,3.61-.88,4.11,1.2.09.4,1.11,7.8,6.42,4.59,1.94-1.17,2.18.91,2.75,2.75,1,3.25,2.07,4.38,3.68,7.35,2.7,5,10.89,3.7,13.76.91,2.37-2.24,4.54-4.13,8.27-3.67,3.51,1.76,7.79.17,10.63-3.2a3.35,3.35,0,0,1,.9-.78,7.58,7.58,0,0,1,7.6.7A2.53,2.53,0,0,1,566,463c-2,2.69-1.22,5.31-.29,8,.54,1.55.41,2.48-1.59,2.32-4.44-.35-6.59,2.49-8.21,6-.31.67-.45,1.7-1,2-4.93,2.51-7.59,6-13.24,7.5-1.56.41-2.46,2.56-2.27,4.62a2.79,2.79,0,0,1-.19,1.31c-1.1,2.69-.37,5.05-.3,7.84,0,1.29,0,1.55-.92,1.84-3.52,1.09-5.39,4.85-7.33,7.59-.67.95-1.09,1.12-2.36.93-2.51-.37-4.54,1.17-5.91,3.16a4.64,4.64,0,0,1-4.57,2.1c-4.49-.32-8.18.69-10,5.45a6,6,0,0,1-3,2.85c-2.37,1.21-3.61.68-3.51-2,.19-5.24-1.86-10-2.84-15a2.43,2.43,0,0,0-2.18-2.16c-2.3-.48-2.61-2.08-3.14-4.23-1.47-6-.66-12.08-1.32-18.08a66.61,66.61,0,0,1-.17-13.24c.26-2.91,2.36-5.25,4.25-7.49,1-1.15,2.15-2.17,1.52-3.95a1.08,1.08,0,0,1,.51-1.22c3.17-2.19,4.49-6.12,7.86-8.14A15.35,15.35,0,0,0,507.29,450Z" transform="translate(-372.48 -153.06)"/></g><g id="Puenta_Piedra" data-name="Puenta Piedra"><path class="cls-1" d="M445.86,388.52c1.8-.51,3.58-1.09,5.4-1.52,3.76-.9,4.74-1.72,4.64-5.5-.07-3,1-4.59,3.8-5.28a13.29,13.29,0,0,0,7.69-5.33c.53-.72,1.23-1.77,2.21-1.4s.43,1.49.41,2.28c0,1.77.2,3.16,2,4.26s1.9,3,1.07,5c-2.19,5.09-1.3,10,1.33,14.55a16.27,16.27,0,0,0,5.62,5.21,9.86,9.86,0,0,1,3.68,3.6,16.21,16.21,0,0,0,8.22,6.83,17.4,17.4,0,0,1,10,10.15c.88,2.2-.37,4.22-.55,6.33-.35,4.05,0,5,3.85,6.56,1.46.59.7,1.24.25,1.89-3.5,5-3.54,6.23.33,10.64.94,1.06.07,1.42-.39,1.7-3.6,2.21-5.3,6.23-8.49,8.82-.5.4-1.26,1-1.22,1.48.35,3.36-2.45,5-3.8,7.48-1.22,2.21-2.61,4.33-2.55,7.06,0,1.9-1.61,2.88-2.85,4a5.41,5.41,0,0,0-2.13,2.9C483,487,478.61,492,474.35,497A5.49,5.49,0,0,1,468,498.9c.11-3.12-.61-5.73-3.8-7.17a2.57,2.57,0,0,1-1.25-3.15,9.82,9.82,0,0,0,.44-3c-.18-1.54.45-2.17,1.82-2.53a3.91,3.91,0,0,0,3-2.76c.57-3.46,2.86-6,4.23-9a6.36,6.36,0,0,0,.48-3.58,11.47,11.47,0,0,1,2.06-8,3.49,3.49,0,0,0,.2-3.92c-1.28-2.47-1.42-5.47-3.5-7.58a1,1,0,0,1-.22-1.29c1.74-2.27-.11-4.45,0-6.52.19-4.67-1.77-7.79-4.78-10.86-2-2.05-1.58-4.89-1.57-7.52s-.88-4-3.63-4.83a16.07,16.07,0,0,1-5.74-3.89,6.82,6.82,0,0,1-1.85-6,3.55,3.55,0,0,0-.08-2.22c-1.58-2.79-3.43-5.36-.68-8.65.64-.78-.58-2.51-1.58-3.37C449.71,391.43,447.75,390,445.86,388.52Z" transform="translate(-372.48 -153.06)"/></g><g id="SJL"><path class="cls-1" d="M644.49,424.53c.35.58,10.1-.92,9.18,1.84-5.51,7.34.92,11-1.8,13.39-2.43,1.38-4.89,2.77-6.71,5-.82,1-2,.85-3.13.9-3.31.14-4.68,1.36-4.58,4.7.13,4.21-1.74,7.87-2.86,11.72-.53,1.8-.92,3.38,0,5.13,1,2,.89,3.83-.91,5.33-1.55,1.29-1.32,2.23.14,3.6,4.39,4.1,4.34,4.19-.74,7.49-1.89,1.22-3.83,2.35-5.79,3.46-9.39,7.2-5.72,10.87-15.51,16.75a45.56,45.56,0,0,0-6.33,2.37c-2.79,1.47-4,3.68-3.31,6.75a8.53,8.53,0,0,1-.88,5.68c-1.94,4.29-3.53,8.91-6.36,12.56-3.63,4.69-4.9,10.83-9.6,14.77-1.54,1.29-1.43,2.95-.45,4.6a12.19,12.19,0,0,0,5.7,4.91c4.85,2.1,7.44,6.16,9.81,10.5a4.12,4.12,0,0,1-.05,4.77c-1,1.43-1.72,1-3.52.64-2.75,0-8.6,2.25-11.93,2.76-1.83.28-3.89.88-5.51,0-.87-.48-2.19-1.59-3.67-1.84a8,8,0,0,0-4.59.92c-4.25,2.22-8.22,2.69-12.77,2.93-5.59-1.09-8.34,1.66-10.49,3.8-1.18.45-1.26,2-1.68,3.15-.31.88-.52,2-1.67,2s-1.54-1-2-1.8A8.5,8.5,0,0,0,540,580a5,5,0,0,1-1-7.6c1.65-1.82,1.35-3.28.63-5.34-1.71-4.87-5.63-8.36-7.7-12.87-1.45-3.15-3.23-6.62-2.22-10.46s.54-8.07,1.61-12a2.7,2.7,0,0,0-.55-2.41c-1.9-2.33-1.56-4.75-.25-7.12,1.18-2.16,2.05-4.24.66-6.63a1.75,1.75,0,0,1,.16-1.89c1.77-2.5,3-5.45,6.23-6.67,2.56-1,4.37-.7,4.1-3.54-.07-.65-.44-3.53-.54-4.18-.7-4.61.39-8.13,5.43-9.48a5.06,5.06,0,0,0,2.36-2c.35-.45,1.46-.64,1.93-.9,4.15-2.31,6.75-4.29,9.17-8.26,1.47-2.41,4.08-2.43,6.43-2.76,1.86-.26,2.77-1.7,1.84-3.67-1.32-2.76-.71-6.18.91-9.18.31-.56-.7-1.22-.91-1.83-1.08-3,3.39-3.9,5.5-5.51,3.29-2.51,3.84-4.18,7.35-6.43a24.15,24.15,0,0,0,5.5-5.5c4.59-4.59,4.59-3.68,10.1-9.18,4.59-2.76,5.51-11,11.93-11,.92,0,6.43,3.67,12.85,6.43C629.14,433.29,634.39,423.61,644.49,424.53Z" transform="translate(-372.48 -153.06)"/></g><g id="Carabayllo"><path class="cls-1" d="M536.09,255.41a1.71,1.71,0,0,1,1.79-1.57c1.66.09,1,.32,1.76-.28,2.35-2,4.51-.59,6.2,1.2a7.71,7.71,0,0,0,6.49,2.75c2.85-.23,5,1.35,7.34,2.54,1.88,1,3.45.81,4.86-.64,1-1,2.43-1.49,3.43-2.45,1.72-1.63,3-1.79,4.54.3.89,1.25,2.42,1.05,3.64.55,1.47-.61,2.55-.44,3.42.85a3.41,3.41,0,0,1,.15,4.2c-.38.53-.88,1-1.23,1.54-1.81,2.82-3.22,5.84-.24,8.61,4.12,3.83,2.87,7.95,1.12,12.18a19,19,0,0,1-3,5.4c-1.28,1.47-1.83,3.22-.35,4.83s3.26,1.22,4.92.28c3.21-1.8,4.28-1.72,6.82.94a12.21,12.21,0,0,0,3,2.07c1.71,1,3.41,2,3.88,4.19.1.44.4,1.15.67,1.19,3.84.44,3.48,4.06,4.69,6.35s3.35,3.91,4.75,6.08a3.14,3.14,0,0,0,2.66,1.42c3.7,0,7.07.86,9.51,3.91,1.69,2.09,3.15,2.09,5.4.24,2-1.63,4.88-2.21,7.39-3.12a5.85,5.85,0,0,0,3.21-2.76,3.51,3.51,0,0,1,1.09-1.4c4.38-3.14,5-5.17,3.1-10.46-.34-.94-.54-1.83.48-2.09,3.86-1,7.17-3.6,11.45-3.56,3.35,0,6.32.58,8.77,2.91,2.82,2.7,6.11,2.58,9.47,1.56,1.16-.35,1.62-.35,1.92.93.69,3,3.15,5.06,4.14,7.95.5,1.49,2.27,1.12,3.51,1.1,1.81,0,3.31.29,4.43,1.87a2.53,2.53,0,0,0,1.58,1.07c4.69.31,9.47,1.87,14-.84a3,3,0,0,1,1.64-.28A36.38,36.38,0,0,0,712,313a3.86,3.86,0,0,1,3,.28,29.71,29.71,0,0,0,11.88,3c.37,0,.85-.08,1.1.11,2.86,2.11,6.53,2.8,9.12,5.34,1,1,1.37,1.6-.06,2.77a32.54,32.54,0,0,0-8,9.36c-2.65,4.76-7.08,7.35-12,9-6.41,2.09-11.86,5.28-15.22,11.37-1.07,2-2.65,3.58-3.71,5.58a4.08,4.08,0,0,1-4.08,2c-4.67-.29-9.35.07-14,.06a11.3,11.3,0,0,1-8.38-3.48c-2.07-2.08-3.58-2-5.67.2-1.41,1.46-2.84,1.66-4.49.49-5.14-3.64-10.1-2.47-15,.62a5.75,5.75,0,0,0-2.72,4.73c-.1,3.21-1.06,6.55.8,9.66a4.13,4.13,0,0,1,.22,2.21c-.11,2.64.65,4.82,3.05,6.21,1.36.79,1.25,1.57.13,2.53a21.16,21.16,0,0,1-7.86,4c-4.63,1.42-9.55,2.05-13.51,5.54-1.31,1.17-3.93,2.56-6.36.94a2,2,0,0,0-2.82.32c-1.07,1.24-1.61,2.9-.66,4.18,3,4.08,1.54,5.09.19,8.86-.73,2-5.5,8.26-5.5,11s-9.54,1.63-11,4.59c-3.67,7.34-8.29,8.32-12.07,12.3-2.39,2.51-5.23,4.6-7.08,7.64a6.35,6.35,0,0,1-1.93,2c-4.16,2.8-7.77,6.26-11.53,9.54a4.55,4.55,0,0,1-4.66,1.11,8.21,8.21,0,0,0-8.81,2.19,7.41,7.41,0,0,1-7.54,2.07c-4.27-1.08-7.34,1-10.16,3.47-3.92,3.43-8.39,2.89-11-1.54a58,58,0,0,1-3.54-7.37c-1.15-2.73-2.08-3.07-4.81-2-2.25.88-3.08.54-3.72-1.77a21,21,0,0,0-1.93-5,3,3,0,0,0-3-1.78c-1.62.14-2.73-3.43-1.81-5.27.79-1.58,1.6-3.32,1.83-3.67,1-1.55.11-3.06-1.83-3.67-2.39-.75-2.83-1.5-2.76-3.67a14.85,14.85,0,0,1,.92-3.67,11.34,11.34,0,0,0,0-6.43c-1-3.14-4.6-6.72-8.26-8.26-4.17-1.74-8.7-4.19-11-8.26-1.47-2.59-3.34-3.62-5.5-5.51-4.63-4.05-5.82-8.61-4.59-13.76.82-3.42.89-6.49-1.84-9.18-2.4-2.37-2.71-5.85.52-6.73,4.11-1.11,7.49-3.91,11.63-5,1.23-.32,1.68-1.74,2.07-2.89a6.67,6.67,0,0,1,7.17-4.86c6,.48,9-3.36,11.93-7.48a4.2,4.2,0,0,0,.12-4.33c-1.4-3.17-1.05-5.94.76-9.06,1.56-2.67,2.83-5.18,5.86-6.41,1.08-.44,3-2.55,3.08-3.72.2-2.14.15-2.42,2-3.26a8.39,8.39,0,0,0,3.9-3.73,27.62,27.62,0,0,1,3.42-4.66,5.63,5.63,0,0,0,.82-6.61c-3.25-5.7-4.48-12.36-8.75-17.6-2.24-2.75-1.82-3.47,1.25-5.12,2.07-1.12,4-2.41,6.41-2.86,1.31-.26,2-1.39,2.6-2.45a123.23,123.23,0,0,0,5.83-13.37A33.51,33.51,0,0,0,536.09,255.41Z" transform="translate(-372.48 -153.06)"/></g><g id="San_Martin_de_Porres" data-name="San Martin de Porres"><path class="cls-1" d="M467.11,554.23c2.06.64,2.06.64,4.19,2.7.78.75,1.07,1.72,1.81,2.47a6.88,6.88,0,0,0,1.57,1.9s1.8,2.64,1.84,3.67-1.58,3.86-1.58,3.86a2.81,2.81,0,0,0-.19.53,32.23,32.23,0,0,1-4.72,11.3c-1.12,1.79-.22,3.29,1.94,3.4,2.71.18,4.42-.69,5.46-.73,6.43-.92,17.53-3,25.58.54,3.07,1.35,6.29,0,9.31-1.06.85-.3,2.41,1,2.49-.75.1-1.92,1.36-4.17-.78-5.77-4.6-3.43-5.69-8.61-6.56-13.73-.39-2.34-.18-4.26-3.42-3a4.06,4.06,0,0,1-2.24,0c-3.12-.78-5.74,1.08-8.61,1.62,0,0-8.08.07-9.34,1a1.73,1.73,0,0,1-2.92-.72c-.75-2-1.51-7.83-3.58-11.37-.78-1.34-1-3.2.31-4.2,2.16-1.7,2.83-4.13,3.74-6.42.5-1.25,2.37-2.38,1.47-3.63-.75-1-2.64-.4-4-.55-2.24-.23-3.41-2.41-1.86-3.9s.41-1.62-.52-2.24c-2.78-1.85-2.86-2.86,0-4.71,2.41-1.58,3-3.76,2.12-6.1-1.67-4.31-1.15-8.7-1.13-13.09,0-2.57,0-5.14,0-8.23-3,2.77-5.52,5.15-9.38,3.9,0,.56-.1,1.12-.11,1.68-.1,4.06-1.39,4.8-5.09,3-1.09-.54-2.07-1.41-3.35-1.41-3.61,0-6.68-2.24-10.33-2.4-1.6-.07-3.2-1.29-4.63-2.48-1.82-1.5-3.81-2.77-5.23-4.77a5.1,5.1,0,0,0,2.16,3.76c3.31,2.64,3.86,7,6.65,10,.79.83.71,2.11.69,3.24,0,2.17,0,4.34-.11,6.49-.16,2.34,0,4.29,2.91,4.75,1,.15,1.52,1,2,1.85,1.9,3,1.73,6,.14,9.09-1.48,2.87-2.87,5.8-4.27,8.71-.8,1.64.65,2.58,1.3,3.72.39.69.86.24,1.34-.18,2.52-2.18,2.95-2.08,4.95.62.87,1.18,1.62,2.9,3.31,2.73,2.76-.28,3.89,1.19,4.73,3.4.31.79.54,1.89,1.93,1.53" transform="translate(-372.48 -153.06)"/></g><g id="Ancon"><path class="cls-1" d="M444.39,385.06c-2.75-2.75-5.29-2.53-9.05-2.28-3.1.2-6.21.06-9.33,0a2.28,2.28,0,0,1-2-3.15,15.91,15.91,0,0,1,3.45-4.81,1.94,1.94,0,0,1,.49-.36c5.5-3,6.26-6.67.43-11.84-4.46-3.95-9.86-7-13-12.26a9.19,9.19,0,0,0-5.77-4.15,7.69,7.69,0,0,0-2.78-.36c-5.59.4-11.21.09-16.81.53-2,0-3.26.93-5.22,1.09s-4.36-.94-6.2-1c-1,0-.47-.76-1.15-1.74.1-1.39-1.78-2.1-3-2.75-2.24-1.2-1.85-2.88-1.48-4.82s2.27-1.74,3.38-2.6c.79-.61,2,.32,2.63,1.14a10.49,10.49,0,0,0,7.55,4.29,4.88,4.88,0,0,1,1.63.49c3.4,1.88,3.4,1.89,5.68-1.58,1.19-1.79,3.24-2.89,4-5,1-2.86.64-5.8.36-8.67a17.57,17.57,0,0,1,.76-6.63c1.35-4.81,1-9.76.41-14.53a13.09,13.09,0,0,0-4.3-7.63c-2.69-2-3.47-4.78-5-7.31-3.54-6-6.93-12.05-12.16-16.8-2.18-2-2.94-5-5-7.11a1.32,1.32,0,0,1-.08-1.82c.58-.58,1,.25,1.41.45,1.84.81,3.15.11,4-1.5a7.13,7.13,0,0,0,.52-6.22c-1.69-4.25-1-5.38,3.43-6.05,1.75-.27,3.53-.48,4.56-2.34a2.6,2.6,0,0,1,1.68-.91c4-.78,6.61-3.46,8.69-6.6,1.13-1.7,2.8-2.15,4.34-2.84,4-1.78,8.06-3.26,12.07-4.94,3.12-1.3,5.27,1.35,7.94,1.83a4.94,4.94,0,0,1,1.5.76c4,2.42,5,2.27,8-1.17,1.22-1.44,5.59-2.09,7.56-.89s4,1.07,5.2-.77c1.34-2-.13-3.52-1.76-4.69-1.21-.87-2.34-1.87-3.51-2.78-2.18-1.69-4.35-3.5-3.6-7,.38-1.74-.86-3.12-2.45-4.1-3-1.83-3.18-4.61-.54-6.91,1.55-1.36,3.33-2.46,4.64-4.09a1.71,1.71,0,0,1,2.29-.38,16.47,16.47,0,0,1,2.21,1.24c7.66,5.32,17.19,2.36,20.62-6.37a13.38,13.38,0,0,1,5.72-6.59c3.18-2,6.16-4.5,9.16-6.86a4.45,4.45,0,0,0,1.61-4.53,6.27,6.27,0,0,1,1.4-5.15c2.77-3.22,3.66-7.35,5.68-10.92.57-1,.32-2.57.23-3.87-.12-1.8.52-3,2.33-3.23a9.6,9.6,0,0,0,4.59-2c2-1.59,3.21-.61,4.41.95,2.49,3.22,3.75,3.45,7.29,1.34s3.55-2.12,6.5.94a3.58,3.58,0,0,0,.66.5c4.43,2.45,7.58,6.28,11,9.86,1.86,1.92,4.87,2.94,7.54,3.83,2.92,1,5.14,2.39,6.48,5.24,1.42,3,3.27,5.66,6.85,6.57,3.22.82,4.78,4.09,7.66,5.51,1.08.52,1,1.6.44,2.69a9.47,9.47,0,0,1-3.82,3.66,7.24,7.24,0,0,0-3.67,6.24c-.32,4.29-2.67,7.52-5.85,10.07a17.71,17.71,0,0,0-4.84,5.41,10.64,10.64,0,0,1-4.44,4.59c-1.78.93-2.7,2.62-3.67,4.17-1.15,1.83,0,3.43,1.52,4.27,2.19,1.19,2.68,2.9,2.56,5.15-.1,1.78.06,3.57,0,5.36a6.34,6.34,0,0,0,2.66,5.62c1.41,1.07.76,3.42.93,5.21.14,5.53-2.23,10.14-2.76,15.6-1.83,5.51-1.14,3.8-3.67,7.35-.56.79-1.81,2.58-2.75,2.75-2.77.51-4.86,2.56-7.34,3.67-1.76.79-4.59,2.76-1.84,7.34,1.93,3.22,5.22,6.47,6.42,10.1,1.07,3.21.93,5.38,2.76,8.26,1,1.64,1.25,3,0,4.59-2.82,3.58-3,5.14-7.34,7.35-1.25.62-1.65,3.23-1.84,4.58-.26,1.9-2.84,3.08-4.59,3.68s-4.59,4.59-5.51,7.34a11.37,11.37,0,0,0,0,8.26c1.15,2.76.06,3.1-1.83,5.51-3,3.79-3.56,3.84-8.26,3.67-2.84-.11-7.33,1.93-8.27,4.59-.86,2.45-.17,3.21-2.75,3.67-1,.18-3.73,2.17-4.59,2.75a16.31,16.31,0,0,1-7.34,2.76,12.42,12.42,0,0,0-7.34,4.59c-1.58,2.13-4,2.94-6.43,3.67-3.09.93-4.4,4.28-4.59,7.34-.21,3.47,0,2.76-2.75,3.67C447.83,384.5,446.65,386,444.39,385.06Z" transform="translate(-372.48 -153.06)"/></g><g id="Santa_Rosa" data-name="Santa Rosa"><path class="cls-1" d="M418.69,382.31c-5.44.94-9.08,1.86-13.76,5.42-2.12,1.61-4.75.71-6.86-.64-1.28-.83-2.39-1.16-3.59-.26-2.74,2-5.47,2.3-8.36,0a9.3,9.3,0,0,0,2.71-4.44,2.81,2.81,0,0,1,2-1.81c2.67-.87,3.53-2.62,2.23-5.11s-2.8-5-1.85-8.12c.15-.46-.05-1.4-.37-1.56-2.73-1.39-2.14-4-2.7-6.31s-1.42-4.92-4.45-5.64a4.06,4.06,0,0,1-1.93-1.58c-1.64-2.13-3.26-3.89-6.31-2.27-.91.49-1.52-.67-1.91-1.31-.6-1,3.34-.84,3.85-1.25,6.43,4.59,9.42,1.54,15.61.92,4.49-.46,9.25-.1,13.77,0,3.55.07,5.5.91,7.34,3.67a15.08,15.08,0,0,0,4.59,5.5c3.53,2.35,5,4.63,8.26,7.35,3.65,3.06,3.89,5.7,0,8.26-2.15,1.41-4.43,3.24-5.51,5.51C420.69,380.23,420.47,381.47,418.69,382.31Z" transform="translate(-372.48 -153.06)"/></g><g id="Callao"><path class="cls-2" d="M384.87,389.55a4.79,4.79,0,0,1,2.42.67,5.67,5.67,0,0,0,6.37-.22,4,4,0,0,1,4.29-.19c3.19,1.36,6.48,1.61,9.76-.93a17.89,17.89,0,0,1,6.54-2.68c7.72-1.91,15.5-.62,23.24-1,.91-.05,2.05-.32,2.62.61,2.39,3.85,6.23,6.09,9.62,8.82,1.41,1.14.91,2.34-.07,3.37-1.94,2-1.71,3.76.49,5.41a3.25,3.25,0,0,1,1.38,3.21c-.48,2.87.77,5.32,1.78,7.83.14.34.31.9.55.95,2.88.56,4,4,7.09,4.22,2,.14,1.83,1.59,1.78,2.9-.1,3.14-.26,6.52,2.09,8.8a12.3,12.3,0,0,1,4.13,9.35c0,2.05,1.46,4,0,6.2-.6.89-.18,2,.68,2.79,1.32,1.27,1.63,3.1,2.44,4.61,1.43,2.66.44,4.78-.53,7a10.69,10.69,0,0,0-1,6.28c.39,2.42-.88,4.35-2.26,6.1a7.34,7.34,0,0,0-1.82,4,3.4,3.4,0,0,1-3,3.49c-2,.41-2.62,1.61-2.36,3.48a6.43,6.43,0,0,1-.18,2.79c-.9,3-.1,5.39,2.76,6.87a3.42,3.42,0,0,1,2,3.43c-.05,2.06,0,4.11,0,6.8-3.19-2.95-7.28-2.27-10.57-4.06a4.64,4.64,0,0,0-2.15-.48c-4.67,0-7.77-2.79-10.5-6.06-1.38-1.65-2.94-2.71-4.8-1.45s-.76,3-.14,4.58a2.8,2.8,0,0,0,.81,1.13c3.66,2.88,4.66,7.6,7.66,10.93a3.72,3.72,0,0,1,.64,2.68c0,2.82,0,5.65-.11,8.47a3.79,3.79,0,0,0,2.84,4.24c3.19,1.16,4.32,3.76,2.92,6.95-1.52,3.46-3.29,6.8-4.91,10.21-.92,1.92.23,5.36,2.33,6.8s3.54.34,4.93-1.17c1.91,2.19,3.32,5,6.9,4.56,1-.11,1.1.88,1.39,1.53,1,2.17,2,4.17,5,3.4a.82.82,0,0,1,1.1.56c1,2.87,3.27,4.69,5.31,6.71.37.36.65.73.29,1.19-3.09,3.91-2.88,9.28-5.84,13.22-1.2,1.59-2,3.15-1.23,5.18a4.37,4.37,0,0,0,4.34,3,23.92,23.92,0,0,0,2.54,0c2.25-.16,3.77.19,4.54,2.89.63,2.18,1.36,4.9,4.56,5.25a6.83,6.83,0,0,1-6,2.34c-2.33-.14-3.63,1.23-3.87,3.56,0,.38,0,.76,0,1.13-.45,4.29-.45,4.29-4.81,4.63-2.89.23-5.35,2.19-8.37,2.07a1.5,1.5,0,0,0-1.37,1.58c.35,5.49-3.6,8.45-6.84,11.84-2.53,1.28-5,.18-7.35-.42a23.58,23.58,0,0,0-4.63-1.15,2.57,2.57,0,0,1-1.83-.64c-3.63-4.11-8.81-3.3-13.36-3.86a59.34,59.34,0,0,0-9.55-.51,3.89,3.89,0,0,0-3.83,2.25c-2,4-5.52,4.85-9.45,2.68-.25-.14-.51-.26-.74-.42-.95-.64-2.95-.37-2.8-1.83.17-1.76,1.65-3.12,2.93-4.36.65-.63,1.46-.19,2.07.25,1.62,1.15,3,.61,4.33-.51,2.25-1.83,4.24-4,6.8-5.45a4,4,0,0,0,1.82-4.44c-.24-1.17.17-1.89,1.32-2,2.26-.21,2.93-1.65,3.16-3.63.15-1.31.37-2.61.55-3.92a1.9,1.9,0,0,1,2-1.92c.86,0,2.24,1,2.32-.88s.32-3.86-1.86-4.89a3.73,3.73,0,0,0-.81-.22c-4.18-.91-5.81-3.9-4.37-8a2.27,2.27,0,0,1,1.46-1.62c3.8-1,5.45-4.2,6.41-7.26,2.57-8.13,5.6-16.22,5.47-25a4.93,4.93,0,0,1,.19-2c2.42-5.61,1.2-11.52,1.46-17.3a3.26,3.26,0,0,0-.23-1.95c-3-4.4-1.46-9.73-3-14.47a34,34,0,0,1-1.34-12.27,8.75,8.75,0,0,0-1.1-4.33,20.86,20.86,0,0,1-2.29-7.52,6.57,6.57,0,0,0-1.11-3.16,3.48,3.48,0,0,1-.91-2.32c.71-4.2-1.6-7.42-3.4-10.79-1-1.89-1.34-3.63-.22-5.59,1.75-3.06,1.31-5.87-.94-8.6-2.76-3.37-5.31-6.86-4.86-11.65.13-1.39-.72-2.7-1.42-3.94A50.21,50.21,0,0,1,408.35,426c-.89-3.52-3.08-6.44-5.08-9.36-1.71-2.49-3.24-5.07-4.84-7.62-1.15-1.82-2.66-2.87-4.94-2.49-2.08.34-4.13-.16-6.17-.43-2.44-.33-4.69-4.8-3.47-6.93,1-1.75,1.26-3.14,0-4.9S383.33,390.85,384.87,389.55Z" transform="translate(-372.48 -153.06)"/></g></svg>